<mxfile host="Electron" modified="2023-05-06T18:45:26.782Z" agent="Mozilla/5.0 (Macintosh; Intel Mac OS X 10_15_7) AppleWebKit/537.36 (KHTML, like Gecko) draw.io/21.1.2 Chrome/106.0.5249.199 Electron/21.4.3 Safari/537.36" etag="0zB68IzKZ1k-tyR-ycH5" version="21.1.2" type="device">
  <diagram name="Page-1" id="pxaHdqTS34p7EinTOvAJ">
    <mxGraphModel dx="1895" dy="606" grid="1" gridSize="10" guides="1" tooltips="1" connect="1" arrows="1" fold="1" page="1" pageScale="1" pageWidth="1100" pageHeight="850" math="0" shadow="0">
      <root>
        <mxCell id="0" />
        <mxCell id="1" parent="0" />
        <mxCell id="i-tnlhz29vro71CStZkx-1" value="1" style="swimlane;fontStyle=0;childLayout=stackLayout;horizontal=1;startSize=26;fillColor=none;horizontalStack=0;resizeParent=1;resizeParentMax=0;resizeLast=0;collapsible=1;marginBottom=0;html=1;rounded=1;labelBackgroundColor=none;strokeColor=#0F8B8D;fontColor=#143642;" parent="1" vertex="1">
          <mxGeometry x="110" y="239" width="150" height="86" as="geometry" />
        </mxCell>
        <mxCell id="i-tnlhz29vro71CStZkx-2" value="Maintain &lt;br&gt;account&lt;br&gt;HTML / Java" style="text;html=1;align=center;verticalAlign=middle;resizable=0;points=[];autosize=1;strokeColor=none;fillColor=none;fontSize=14;labelBackgroundColor=none;fontColor=#143642;" parent="i-tnlhz29vro71CStZkx-1" vertex="1">
          <mxGeometry y="26" width="150" height="60" as="geometry" />
        </mxCell>
        <mxCell id="i-tnlhz29vro71CStZkx-4" value="Passenger" style="whiteSpace=wrap;html=1;align=center;labelBackgroundColor=none;fillColor=#FAE5C7;strokeColor=#0F8B8D;fontColor=#143642;" parent="1" vertex="1">
          <mxGeometry x="430" y="468" width="100" height="40" as="geometry" />
        </mxCell>
        <mxCell id="i-tnlhz29vro71CStZkx-42" value="" style="edgeStyle=orthogonalEdgeStyle;rounded=0;orthogonalLoop=1;jettySize=auto;html=1;exitX=0;exitY=0.25;exitDx=0;exitDy=0;entryX=1;entryY=0.253;entryDx=0;entryDy=0;entryPerimeter=0;labelBackgroundColor=none;strokeColor=#A8201A;fontColor=default;" parent="1" source="i-tnlhz29vro71CStZkx-5" target="i-tnlhz29vro71CStZkx-2" edge="1">
          <mxGeometry relative="1" as="geometry">
            <Array as="points">
              <mxPoint x="430" y="279" />
            </Array>
          </mxGeometry>
        </mxCell>
        <mxCell id="i-tnlhz29vro71CStZkx-5" value="Driver" style="whiteSpace=wrap;html=1;align=center;labelBackgroundColor=none;fillColor=#FAE5C7;strokeColor=#0F8B8D;fontColor=#143642;" parent="1" vertex="1">
          <mxGeometry x="430" y="270" width="100" height="40" as="geometry" />
        </mxCell>
        <mxCell id="i-tnlhz29vro71CStZkx-6" value="Administrator" style="whiteSpace=wrap;html=1;align=center;labelBackgroundColor=none;fillColor=#FAE5C7;strokeColor=#0F8B8D;fontColor=#143642;" parent="1" vertex="1">
          <mxGeometry x="940" y="555" width="100" height="40" as="geometry" />
        </mxCell>
        <mxCell id="i-tnlhz29vro71CStZkx-7" value="" style="rounded=0;whiteSpace=wrap;html=1;align=right;labelBackgroundColor=none;fillColor=#FAE5C7;strokeColor=#0F8B8D;fontColor=#143642;" parent="1" vertex="1">
          <mxGeometry x="905" y="678.5" width="185" height="40" as="geometry" />
        </mxCell>
        <mxCell id="i-tnlhz29vro71CStZkx-8" value="" style="endArrow=none;html=1;rounded=0;entryX=0.25;entryY=0;entryDx=0;entryDy=0;exitX=0.25;exitY=1;exitDx=0;exitDy=0;labelBackgroundColor=none;strokeColor=#A8201A;fontColor=default;" parent="1" source="i-tnlhz29vro71CStZkx-7" target="i-tnlhz29vro71CStZkx-7" edge="1">
          <mxGeometry width="50" height="50" relative="1" as="geometry">
            <mxPoint x="300" y="330" as="sourcePoint" />
            <mxPoint x="350" y="280" as="targetPoint" />
            <Array as="points" />
          </mxGeometry>
        </mxCell>
        <mxCell id="i-tnlhz29vro71CStZkx-10" value="D4" style="text;html=1;strokeColor=none;fillColor=none;align=center;verticalAlign=middle;whiteSpace=wrap;rounded=0;labelBackgroundColor=none;fontColor=#143642;" parent="1" vertex="1">
          <mxGeometry x="900" y="680" width="50" height="40" as="geometry" />
        </mxCell>
        <mxCell id="i-tnlhz29vro71CStZkx-12" value="" style="rounded=0;whiteSpace=wrap;html=1;align=right;labelBackgroundColor=none;fillColor=#FAE5C7;strokeColor=#0F8B8D;fontColor=#143642;" parent="1" vertex="1">
          <mxGeometry x="900" y="95" width="180" height="40" as="geometry" />
        </mxCell>
        <mxCell id="i-tnlhz29vro71CStZkx-13" value="" style="endArrow=none;html=1;rounded=0;entryX=0.25;entryY=0;entryDx=0;entryDy=0;exitX=0.25;exitY=1;exitDx=0;exitDy=0;labelBackgroundColor=none;strokeColor=#A8201A;fontColor=default;" parent="1" source="i-tnlhz29vro71CStZkx-12" target="i-tnlhz29vro71CStZkx-12" edge="1">
          <mxGeometry width="50" height="50" relative="1" as="geometry">
            <mxPoint x="660" y="370" as="sourcePoint" />
            <mxPoint x="710" y="320" as="targetPoint" />
            <Array as="points" />
          </mxGeometry>
        </mxCell>
        <mxCell id="i-tnlhz29vro71CStZkx-14" value="D2" style="text;html=1;strokeColor=none;fillColor=none;align=center;verticalAlign=middle;whiteSpace=wrap;rounded=0;labelBackgroundColor=none;fontColor=#143642;" parent="1" vertex="1">
          <mxGeometry x="890" y="100" width="60" height="30" as="geometry" />
        </mxCell>
        <mxCell id="i-tnlhz29vro71CStZkx-15" value="2" style="swimlane;fontStyle=0;childLayout=stackLayout;horizontal=1;startSize=26;fillColor=none;horizontalStack=0;resizeParent=1;resizeParentMax=0;resizeLast=0;collapsible=1;marginBottom=0;html=1;rounded=1;labelBackgroundColor=none;strokeColor=#0F8B8D;fontColor=#143642;" parent="1" vertex="1">
          <mxGeometry x="700" y="230" width="150" height="86" as="geometry" />
        </mxCell>
        <mxCell id="i-tnlhz29vro71CStZkx-16" value="Share&lt;br&gt;a Ride&lt;br&gt;Visual Basic" style="text;html=1;align=center;verticalAlign=middle;resizable=0;points=[];autosize=1;strokeColor=none;fillColor=none;fontSize=14;labelBackgroundColor=none;fontColor=#143642;" parent="i-tnlhz29vro71CStZkx-15" vertex="1">
          <mxGeometry y="26" width="150" height="60" as="geometry" />
        </mxCell>
        <mxCell id="i-tnlhz29vro71CStZkx-20" value="3" style="swimlane;fontStyle=0;childLayout=stackLayout;horizontal=1;startSize=26;fillColor=none;horizontalStack=0;resizeParent=1;resizeParentMax=0;resizeLast=0;collapsible=1;marginBottom=0;html=1;rounded=1;labelBackgroundColor=none;strokeColor=#0F8B8D;fontColor=#143642;" parent="1" vertex="1">
          <mxGeometry x="130" y="574" width="150" height="106" as="geometry" />
        </mxCell>
        <mxCell id="i-tnlhz29vro71CStZkx-21" value="Process &lt;br&gt;Payment&lt;br&gt;&lt;br&gt;Paypal" style="text;html=1;align=center;verticalAlign=middle;resizable=0;points=[];autosize=1;strokeColor=none;fillColor=none;fontSize=14;labelBackgroundColor=none;fontColor=#143642;" parent="i-tnlhz29vro71CStZkx-20" vertex="1">
          <mxGeometry y="26" width="150" height="80" as="geometry" />
        </mxCell>
        <mxCell id="i-tnlhz29vro71CStZkx-22" value="4" style="swimlane;fontStyle=0;childLayout=stackLayout;horizontal=1;startSize=26;fillColor=none;horizontalStack=0;resizeParent=1;resizeParentMax=0;resizeLast=0;collapsible=1;marginBottom=0;html=1;rounded=1;labelBackgroundColor=none;strokeColor=#0F8B8D;fontColor=#143642;" parent="1" vertex="1">
          <mxGeometry x="690" y="514" width="150" height="106" as="geometry" />
        </mxCell>
        <mxCell id="i-tnlhz29vro71CStZkx-23" value="Manage&lt;br&gt;Feedback&lt;br&gt;&lt;br&gt;Zendesk" style="text;html=1;align=center;verticalAlign=middle;resizable=0;points=[];autosize=1;strokeColor=none;fillColor=none;fontSize=14;labelBackgroundColor=none;fontColor=#143642;" parent="i-tnlhz29vro71CStZkx-22" vertex="1">
          <mxGeometry y="26" width="150" height="80" as="geometry" />
        </mxCell>
        <mxCell id="i-tnlhz29vro71CStZkx-33" value="" style="endArrow=classic;html=1;rounded=0;exitX=0.25;exitY=0;exitDx=0;exitDy=0;entryX=0.6;entryY=0;entryDx=0;entryDy=0;entryPerimeter=0;labelBackgroundColor=none;strokeColor=#A8201A;fontColor=default;" parent="1" source="i-tnlhz29vro71CStZkx-5" target="i-tnlhz29vro71CStZkx-1" edge="1">
          <mxGeometry width="50" height="50" relative="1" as="geometry">
            <mxPoint x="520" y="390" as="sourcePoint" />
            <mxPoint x="240" y="230" as="targetPoint" />
            <Array as="points">
              <mxPoint x="455" y="180" />
              <mxPoint x="220" y="180" />
            </Array>
          </mxGeometry>
        </mxCell>
        <mxCell id="i-tnlhz29vro71CStZkx-34" value="Account Registration Information input form" style="text;html=1;strokeColor=none;fillColor=none;align=center;verticalAlign=middle;whiteSpace=wrap;rounded=0;fontSize=10;labelBackgroundColor=none;fontColor=#143642;" parent="1" vertex="1">
          <mxGeometry x="241" y="154" width="200" height="30" as="geometry" />
        </mxCell>
        <mxCell id="i-tnlhz29vro71CStZkx-35" value="" style="endArrow=classic;html=1;rounded=0;exitX=0.736;exitY=-0.005;exitDx=0;exitDy=0;exitPerimeter=0;entryX=0.1;entryY=0;entryDx=0;entryDy=0;entryPerimeter=0;labelBackgroundColor=none;strokeColor=#A8201A;fontColor=default;" parent="1" source="i-tnlhz29vro71CStZkx-1" target="i-tnlhz29vro71CStZkx-5" edge="1">
          <mxGeometry width="50" height="50" relative="1" as="geometry">
            <mxPoint x="410" y="380" as="sourcePoint" />
            <mxPoint x="460" y="260" as="targetPoint" />
            <Array as="points">
              <mxPoint x="240" y="200" />
              <mxPoint x="360" y="200" />
              <mxPoint x="440" y="200" />
            </Array>
          </mxGeometry>
        </mxCell>
        <mxCell id="i-tnlhz29vro71CStZkx-36" value="Account Registration Confirmation message alert&amp;nbsp;" style="text;html=1;strokeColor=none;fillColor=none;align=center;verticalAlign=middle;whiteSpace=wrap;rounded=0;fontSize=10;labelBackgroundColor=none;fontColor=#143642;" parent="1" vertex="1">
          <mxGeometry x="239.5" y="200" width="200" height="30" as="geometry" />
        </mxCell>
        <mxCell id="i-tnlhz29vro71CStZkx-38" value="Account management interface" style="text;html=1;strokeColor=none;fillColor=none;align=center;verticalAlign=middle;whiteSpace=wrap;rounded=0;fontSize=10;labelBackgroundColor=none;fontColor=#143642;" parent="1" vertex="1">
          <mxGeometry x="260" y="256" width="200" height="30" as="geometry" />
        </mxCell>
        <mxCell id="i-tnlhz29vro71CStZkx-43" value="" style="endArrow=classic;html=1;rounded=0;entryX=0.002;entryY=0.68;entryDx=0;entryDy=0;entryPerimeter=0;exitX=1.007;exitY=0.624;exitDx=0;exitDy=0;exitPerimeter=0;labelBackgroundColor=none;strokeColor=#A8201A;fontColor=default;" parent="1" source="i-tnlhz29vro71CStZkx-2" target="i-tnlhz29vro71CStZkx-5" edge="1">
          <mxGeometry width="50" height="50" relative="1" as="geometry">
            <mxPoint x="300" y="310" as="sourcePoint" />
            <mxPoint x="350" y="260" as="targetPoint" />
          </mxGeometry>
        </mxCell>
        <mxCell id="i-tnlhz29vro71CStZkx-44" value="Modification Confirmation message" style="text;html=1;strokeColor=none;fillColor=none;align=center;verticalAlign=middle;whiteSpace=wrap;rounded=0;fontSize=9;labelBackgroundColor=none;fontColor=#143642;" parent="1" vertex="1">
          <mxGeometry x="260" y="275" width="200" height="30" as="geometry" />
        </mxCell>
        <mxCell id="i-tnlhz29vro71CStZkx-46" value="" style="endArrow=classic;html=1;rounded=0;entryX=0.46;entryY=1.011;entryDx=0;entryDy=0;entryPerimeter=0;exitX=0.096;exitY=-0.006;exitDx=0;exitDy=0;exitPerimeter=0;labelBackgroundColor=none;strokeColor=#A8201A;fontColor=default;" parent="1" source="i-tnlhz29vro71CStZkx-4" target="i-tnlhz29vro71CStZkx-2" edge="1">
          <mxGeometry width="50" height="50" relative="1" as="geometry">
            <mxPoint x="450" y="260" as="sourcePoint" />
            <mxPoint x="500" y="210" as="targetPoint" />
            <Array as="points">
              <mxPoint x="440" y="380" />
              <mxPoint x="199" y="380" />
            </Array>
          </mxGeometry>
        </mxCell>
        <mxCell id="i-tnlhz29vro71CStZkx-47" value="Account Registration Information input form" style="text;whiteSpace=wrap;html=1;fontSize=10;labelBackgroundColor=none;fontColor=#143642;" parent="1" vertex="1">
          <mxGeometry x="239" y="378" width="161" height="22" as="geometry" />
        </mxCell>
        <mxCell id="i-tnlhz29vro71CStZkx-48" value="" style="endArrow=classic;html=1;rounded=0;exitX=0.602;exitY=1.033;exitDx=0;exitDy=0;exitPerimeter=0;entryX=0.185;entryY=0;entryDx=0;entryDy=0;entryPerimeter=0;labelBackgroundColor=none;strokeColor=#A8201A;fontColor=default;" parent="1" source="i-tnlhz29vro71CStZkx-2" target="i-tnlhz29vro71CStZkx-4" edge="1">
          <mxGeometry width="50" height="50" relative="1" as="geometry">
            <mxPoint x="259" y="319" as="sourcePoint" />
            <mxPoint x="450" y="400" as="targetPoint" />
            <Array as="points">
              <mxPoint x="220" y="360" />
              <mxPoint x="360" y="360" />
              <mxPoint x="450" y="360" />
            </Array>
          </mxGeometry>
        </mxCell>
        <mxCell id="i-tnlhz29vro71CStZkx-49" value="Account Registration Confirmation message" style="text;html=1;strokeColor=none;fillColor=none;align=center;verticalAlign=middle;whiteSpace=wrap;rounded=0;fontSize=10;labelBackgroundColor=none;fontColor=#143642;" parent="1" vertex="1">
          <mxGeometry x="220" y="351" width="200" height="30" as="geometry" />
        </mxCell>
        <mxCell id="i-tnlhz29vro71CStZkx-50" value="" style="endArrow=classic;html=1;rounded=0;entryX=0.73;entryY=1.013;entryDx=0;entryDy=0;exitX=0.295;exitY=0.002;exitDx=0;exitDy=0;exitPerimeter=0;entryPerimeter=0;labelBackgroundColor=none;strokeColor=#A8201A;fontColor=default;" parent="1" source="i-tnlhz29vro71CStZkx-4" target="i-tnlhz29vro71CStZkx-2" edge="1">
          <mxGeometry width="50" height="50" relative="1" as="geometry">
            <mxPoint x="380" y="280" as="sourcePoint" />
            <mxPoint x="430" y="230" as="targetPoint" />
            <Array as="points">
              <mxPoint x="460" y="340" />
              <mxPoint x="410" y="340" />
              <mxPoint x="240" y="340" />
            </Array>
          </mxGeometry>
        </mxCell>
        <mxCell id="i-tnlhz29vro71CStZkx-51" value="Account management interface" style="text;html=1;strokeColor=none;fillColor=none;align=center;verticalAlign=middle;whiteSpace=wrap;rounded=0;fontSize=10;labelBackgroundColor=none;fontColor=#143642;" parent="1" vertex="1">
          <mxGeometry x="234" y="330" width="200" height="30" as="geometry" />
        </mxCell>
        <mxCell id="i-tnlhz29vro71CStZkx-52" value="" style="endArrow=classic;html=1;rounded=0;entryX=0.391;entryY=0.035;entryDx=0;entryDy=0;entryPerimeter=0;exitX=0.866;exitY=1.014;exitDx=0;exitDy=0;exitPerimeter=0;labelBackgroundColor=none;strokeColor=#A8201A;fontColor=default;" parent="1" source="i-tnlhz29vro71CStZkx-2" target="i-tnlhz29vro71CStZkx-4" edge="1">
          <mxGeometry width="50" height="50" relative="1" as="geometry">
            <mxPoint x="300" y="320" as="sourcePoint" />
            <mxPoint x="472.41999999999996" y="401.28" as="targetPoint" />
            <Array as="points">
              <mxPoint x="260" y="330" />
              <mxPoint x="470" y="330" />
            </Array>
          </mxGeometry>
        </mxCell>
        <mxCell id="i-tnlhz29vro71CStZkx-54" value="Modification Confirmation message alert" style="text;html=1;strokeColor=none;fillColor=none;align=center;verticalAlign=middle;whiteSpace=wrap;rounded=0;fontSize=9;labelBackgroundColor=none;fontColor=#143642;" parent="1" vertex="1">
          <mxGeometry x="252" y="307" width="200" height="30" as="geometry" />
        </mxCell>
        <mxCell id="i-tnlhz29vro71CStZkx-55" value="" style="endArrow=classic;html=1;rounded=0;entryX=0.468;entryY=-0.006;entryDx=0;entryDy=0;entryPerimeter=0;labelBackgroundColor=none;strokeColor=#A8201A;fontColor=default;" parent="1" target="i-tnlhz29vro71CStZkx-15" edge="1">
          <mxGeometry width="50" height="50" relative="1" as="geometry">
            <mxPoint x="468" y="270" as="sourcePoint" />
            <mxPoint x="682" y="238" as="targetPoint" />
            <Array as="points">
              <mxPoint x="470" y="180" />
              <mxPoint x="760" y="180" />
            </Array>
          </mxGeometry>
        </mxCell>
        <mxCell id="i-tnlhz29vro71CStZkx-56" value="Location access confirmation message alert" style="text;html=1;strokeColor=none;fillColor=none;align=center;verticalAlign=middle;whiteSpace=wrap;rounded=0;fontSize=9;labelBackgroundColor=none;fontColor=#143642;" parent="1" vertex="1">
          <mxGeometry x="478" y="156" width="200" height="30" as="geometry" />
        </mxCell>
        <mxCell id="i-tnlhz29vro71CStZkx-57" value="" style="endArrow=classic;html=1;rounded=0;exitX=0.409;exitY=-0.02;exitDx=0;exitDy=0;entryX=0.5;entryY=0;entryDx=0;entryDy=0;exitPerimeter=0;labelBackgroundColor=none;strokeColor=#A8201A;fontColor=default;" parent="1" source="i-tnlhz29vro71CStZkx-15" target="i-tnlhz29vro71CStZkx-5" edge="1">
          <mxGeometry width="50" height="50" relative="1" as="geometry">
            <mxPoint x="520" y="320" as="sourcePoint" />
            <mxPoint x="480" y="270" as="targetPoint" />
            <Array as="points">
              <mxPoint x="750" y="200" />
              <mxPoint x="480" y="200" />
            </Array>
          </mxGeometry>
        </mxCell>
        <mxCell id="i-tnlhz29vro71CStZkx-58" value="Location information with 3D interface" style="text;html=1;strokeColor=none;fillColor=none;align=center;verticalAlign=middle;whiteSpace=wrap;rounded=0;fontSize=9;labelBackgroundColor=none;fontColor=#143642;" parent="1" vertex="1">
          <mxGeometry x="472" y="176" width="200" height="30" as="geometry" />
        </mxCell>
        <mxCell id="i-tnlhz29vro71CStZkx-59" value="" style="endArrow=classic;html=1;rounded=0;exitX=0.697;exitY=-0.003;exitDx=0;exitDy=0;exitPerimeter=0;entryX=0.024;entryY=0.009;entryDx=0;entryDy=0;entryPerimeter=0;labelBackgroundColor=none;strokeColor=#A8201A;fontColor=default;" parent="1" source="i-tnlhz29vro71CStZkx-5" target="i-tnlhz29vro71CStZkx-15" edge="1">
          <mxGeometry width="50" height="50" relative="1" as="geometry">
            <mxPoint x="590" y="270" as="sourcePoint" />
            <mxPoint x="630" y="240" as="targetPoint" />
            <Array as="points">
              <mxPoint x="500" y="240" />
            </Array>
          </mxGeometry>
        </mxCell>
        <mxCell id="i-tnlhz29vro71CStZkx-60" value="" style="endArrow=classic;html=1;rounded=0;exitX=0.335;exitY=-0.022;exitDx=0;exitDy=0;exitPerimeter=0;labelBackgroundColor=none;strokeColor=#A8201A;fontColor=default;" parent="1" source="i-tnlhz29vro71CStZkx-15" edge="1">
          <mxGeometry width="50" height="50" relative="1" as="geometry">
            <mxPoint x="560" y="300" as="sourcePoint" />
            <mxPoint x="490" y="270" as="targetPoint" />
            <Array as="points">
              <mxPoint x="740" y="220" />
              <mxPoint x="570" y="220" />
              <mxPoint x="490" y="220" />
            </Array>
          </mxGeometry>
        </mxCell>
        <mxCell id="i-tnlhz29vro71CStZkx-61" value="&lt;br&gt;Ride request notification allert" style="text;html=1;strokeColor=none;fillColor=none;align=center;verticalAlign=middle;whiteSpace=wrap;rounded=0;fontSize=9;labelBackgroundColor=none;fontColor=#143642;" parent="1" vertex="1">
          <mxGeometry x="477" y="192" width="200" height="30" as="geometry" />
        </mxCell>
        <mxCell id="i-tnlhz29vro71CStZkx-62" value="&lt;font style=&quot;font-size: 9px;&quot;&gt;Response for ride&amp;nbsp;&lt;/font&gt;" style="text;whiteSpace=wrap;html=1;fontSize=9;labelBackgroundColor=none;fontColor=#143642;" parent="1" vertex="1">
          <mxGeometry x="534" y="220" width="130" height="40" as="geometry" />
        </mxCell>
        <mxCell id="i-tnlhz29vro71CStZkx-63" value="" style="endArrow=classic;html=1;rounded=0;entryX=0.799;entryY=0.004;entryDx=0;entryDy=0;exitX=0;exitY=0.25;exitDx=0;exitDy=0;entryPerimeter=0;labelBackgroundColor=none;strokeColor=#A8201A;fontColor=default;" parent="1" source="i-tnlhz29vro71CStZkx-15" target="i-tnlhz29vro71CStZkx-5" edge="1">
          <mxGeometry width="50" height="50" relative="1" as="geometry">
            <mxPoint x="560" y="300" as="sourcePoint" />
            <mxPoint x="610" y="250" as="targetPoint" />
            <Array as="points">
              <mxPoint x="600" y="260" />
              <mxPoint x="560" y="260" />
              <mxPoint x="510" y="260" />
            </Array>
          </mxGeometry>
        </mxCell>
        <mxCell id="i-tnlhz29vro71CStZkx-64" value="Requested ride details" style="text;whiteSpace=wrap;html=1;fontSize=9;labelBackgroundColor=none;fontColor=#143642;" parent="1" vertex="1">
          <mxGeometry x="515" y="239" width="130" height="20" as="geometry" />
        </mxCell>
        <mxCell id="i-tnlhz29vro71CStZkx-65" value="" style="endArrow=classic;html=1;rounded=0;exitX=1;exitY=0.25;exitDx=0;exitDy=0;entryX=0.002;entryY=0.274;entryDx=0;entryDy=0;entryPerimeter=0;labelBackgroundColor=none;strokeColor=#A8201A;fontColor=default;" parent="1" source="i-tnlhz29vro71CStZkx-5" target="i-tnlhz29vro71CStZkx-16" edge="1">
          <mxGeometry width="50" height="50" relative="1" as="geometry">
            <mxPoint x="530" y="278" as="sourcePoint" />
            <mxPoint x="649.8499999999999" y="277.20000000000005" as="targetPoint" />
          </mxGeometry>
        </mxCell>
        <mxCell id="i-tnlhz29vro71CStZkx-66" value="Ride status updates" style="text;html=1;align=center;verticalAlign=middle;resizable=0;points=[];autosize=1;strokeColor=none;fillColor=none;rotation=0;fontSize=9;labelBackgroundColor=none;fontColor=#143642;" parent="1" vertex="1">
          <mxGeometry x="543" y="261" width="100" height="20" as="geometry" />
        </mxCell>
        <mxCell id="i-tnlhz29vro71CStZkx-67" value="" style="endArrow=classic;html=1;rounded=0;entryX=-0.006;entryY=0.68;entryDx=0;entryDy=0;entryPerimeter=0;exitX=1;exitY=0.75;exitDx=0;exitDy=0;labelBackgroundColor=none;strokeColor=#A8201A;fontColor=default;" parent="1" edge="1">
          <mxGeometry width="50" height="50" relative="1" as="geometry">
            <mxPoint x="530" y="295" as="sourcePoint" />
            <mxPoint x="689.0999999999999" y="295" as="targetPoint" />
          </mxGeometry>
        </mxCell>
        <mxCell id="i-tnlhz29vro71CStZkx-68" value="Ride cancellation confirmation message" style="text;whiteSpace=wrap;html=1;fontSize=9;labelBackgroundColor=none;fontColor=#143642;" parent="1" vertex="1">
          <mxGeometry x="539.5" y="290" width="141" height="20" as="geometry" />
        </mxCell>
        <mxCell id="i-tnlhz29vro71CStZkx-69" value="Ride cancellation request" style="text;whiteSpace=wrap;html=1;fontSize=9;labelBackgroundColor=none;fontColor=#143642;" parent="1" vertex="1">
          <mxGeometry x="549" y="275" width="109" height="20" as="geometry" />
        </mxCell>
        <mxCell id="i-tnlhz29vro71CStZkx-71" value="" style="endArrow=classic;html=1;rounded=0;entryX=1;entryY=1;entryDx=0;entryDy=0;exitX=-0.004;exitY=0.851;exitDx=0;exitDy=0;exitPerimeter=0;labelBackgroundColor=none;strokeColor=#A8201A;fontColor=default;" parent="1" source="i-tnlhz29vro71CStZkx-16" target="i-tnlhz29vro71CStZkx-5" edge="1">
          <mxGeometry width="50" height="50" relative="1" as="geometry">
            <mxPoint x="630" y="270" as="sourcePoint" />
            <mxPoint x="680" y="220" as="targetPoint" />
          </mxGeometry>
        </mxCell>
        <mxCell id="i-tnlhz29vro71CStZkx-73" value="" style="endArrow=classic;html=1;rounded=0;entryX=0.002;entryY=0.152;entryDx=0;entryDy=0;entryPerimeter=0;labelBackgroundColor=none;strokeColor=#A8201A;fontColor=default;" parent="1" target="i-tnlhz29vro71CStZkx-12" edge="1">
          <mxGeometry width="50" height="50" relative="1" as="geometry">
            <mxPoint x="800" y="230" as="sourcePoint" />
            <mxPoint x="890" y="100" as="targetPoint" />
            <Array as="points">
              <mxPoint x="800" y="160" />
              <mxPoint x="800" y="120" />
              <mxPoint x="800" y="100" />
              <mxPoint x="880" y="100" />
            </Array>
          </mxGeometry>
        </mxCell>
        <mxCell id="i-tnlhz29vro71CStZkx-74" value="MySQL Record: Location information" style="text;html=1;strokeColor=none;fillColor=none;align=center;verticalAlign=middle;whiteSpace=wrap;rounded=0;fontSize=9;horizontal=0;labelBackgroundColor=none;fontColor=#143642;" parent="1" vertex="1">
          <mxGeometry x="750" y="120" width="70" height="94" as="geometry" />
        </mxCell>
        <mxCell id="i-tnlhz29vro71CStZkx-76" value="" style="endArrow=classic;html=1;rounded=0;entryX=0.268;entryY=-0.007;entryDx=0;entryDy=0;exitX=0;exitY=0;exitDx=0;exitDy=0;entryPerimeter=0;labelBackgroundColor=none;strokeColor=#A8201A;fontColor=default;" parent="1" source="i-tnlhz29vro71CStZkx-4" target="i-tnlhz29vro71CStZkx-20" edge="1">
          <mxGeometry width="50" height="50" relative="1" as="geometry">
            <mxPoint x="430" y="400" as="sourcePoint" />
            <mxPoint x="360" y="380" as="targetPoint" />
            <Array as="points">
              <mxPoint x="170" y="470" />
            </Array>
          </mxGeometry>
        </mxCell>
        <mxCell id="i-tnlhz29vro71CStZkx-77" value="Payment information input form&amp;nbsp;" style="text;html=1;strokeColor=none;fillColor=none;align=center;verticalAlign=middle;whiteSpace=wrap;rounded=0;fontSize=9;labelBackgroundColor=none;fontColor=#143642;" parent="1" vertex="1">
          <mxGeometry x="220" y="447" width="160" height="25" as="geometry" />
        </mxCell>
        <mxCell id="i-tnlhz29vro71CStZkx-78" value="" style="endArrow=classic;html=1;rounded=0;exitX=0.529;exitY=0.002;exitDx=0;exitDy=0;exitPerimeter=0;entryX=0;entryY=1;entryDx=0;entryDy=0;labelBackgroundColor=none;strokeColor=#A8201A;fontColor=default;" parent="1" source="i-tnlhz29vro71CStZkx-20" target="i-tnlhz29vro71CStZkx-4" edge="1">
          <mxGeometry width="50" height="50" relative="1" as="geometry">
            <mxPoint x="300" y="490" as="sourcePoint" />
            <mxPoint x="420" y="510" as="targetPoint" />
            <Array as="points">
              <mxPoint x="210" y="510" />
            </Array>
          </mxGeometry>
        </mxCell>
        <mxCell id="i-tnlhz29vro71CStZkx-79" value="Payment confirmation message" style="text;html=1;strokeColor=none;fillColor=none;align=center;verticalAlign=middle;whiteSpace=wrap;rounded=0;fontSize=9;labelBackgroundColor=none;fontColor=#143642;" parent="1" vertex="1">
          <mxGeometry x="200" y="466" width="200" height="30" as="geometry" />
        </mxCell>
        <mxCell id="i-tnlhz29vro71CStZkx-80" value="Payment authentification by 3D Secure 2" style="text;html=1;strokeColor=none;fillColor=none;align=center;verticalAlign=middle;whiteSpace=wrap;rounded=0;fontSize=9;labelBackgroundColor=none;fontColor=#143642;" parent="1" vertex="1">
          <mxGeometry x="206" y="484" width="200" height="30" as="geometry" />
        </mxCell>
        <mxCell id="i-tnlhz29vro71CStZkx-81" value="" style="endArrow=classic;html=1;rounded=0;exitX=-0.003;exitY=0.553;exitDx=0;exitDy=0;exitPerimeter=0;entryX=0.4;entryY=-0.006;entryDx=0;entryDy=0;entryPerimeter=0;labelBackgroundColor=none;strokeColor=#A8201A;fontColor=default;" parent="1" source="i-tnlhz29vro71CStZkx-4" target="i-tnlhz29vro71CStZkx-20" edge="1">
          <mxGeometry width="50" height="50" relative="1" as="geometry">
            <mxPoint x="290" y="460" as="sourcePoint" />
            <mxPoint x="190" y="600" as="targetPoint" />
            <Array as="points">
              <mxPoint x="190" y="490" />
            </Array>
          </mxGeometry>
        </mxCell>
        <mxCell id="i-tnlhz29vro71CStZkx-82" value="" style="endArrow=classic;html=1;rounded=0;exitX=0.001;exitY=0.811;exitDx=0;exitDy=0;exitPerimeter=0;labelBackgroundColor=none;strokeColor=#A8201A;fontColor=default;" parent="1" source="i-tnlhz29vro71CStZkx-23" edge="1">
          <mxGeometry width="50" height="50" relative="1" as="geometry">
            <mxPoint x="580" y="570" as="sourcePoint" />
            <mxPoint x="470" y="510" as="targetPoint" />
            <Array as="points">
              <mxPoint x="560" y="600" />
              <mxPoint x="470" y="600" />
              <mxPoint x="470" y="550" />
            </Array>
          </mxGeometry>
        </mxCell>
        <mxCell id="i-tnlhz29vro71CStZkx-83" value="Feedback for driver in input form" style="text;html=1;strokeColor=none;fillColor=none;align=center;verticalAlign=middle;whiteSpace=wrap;rounded=0;fontSize=9;labelBackgroundColor=none;fontColor=#143642;" parent="1" vertex="1">
          <mxGeometry x="469.5" y="534" width="200" height="30" as="geometry" />
        </mxCell>
        <mxCell id="i-tnlhz29vro71CStZkx-84" value="" style="endArrow=classic;html=1;rounded=0;entryX=0.001;entryY=0.48;entryDx=0;entryDy=0;entryPerimeter=0;exitX=0.596;exitY=1.014;exitDx=0;exitDy=0;exitPerimeter=0;labelBackgroundColor=none;strokeColor=#A8201A;fontColor=default;" parent="1" source="i-tnlhz29vro71CStZkx-4" target="i-tnlhz29vro71CStZkx-23" edge="1">
          <mxGeometry width="50" height="50" relative="1" as="geometry">
            <mxPoint x="580" y="510" as="sourcePoint" />
            <mxPoint x="630" y="460" as="targetPoint" />
            <Array as="points">
              <mxPoint x="490" y="530" />
              <mxPoint x="490" y="580" />
            </Array>
          </mxGeometry>
        </mxCell>
        <mxCell id="i-tnlhz29vro71CStZkx-85" value="" style="endArrow=classic;html=1;rounded=0;entryX=0.001;entryY=0.055;entryDx=0;entryDy=0;entryPerimeter=0;exitX=0.797;exitY=1.029;exitDx=0;exitDy=0;exitPerimeter=0;labelBackgroundColor=none;strokeColor=#A8201A;fontColor=default;" parent="1" source="i-tnlhz29vro71CStZkx-4" target="i-tnlhz29vro71CStZkx-23" edge="1">
          <mxGeometry width="50" height="50" relative="1" as="geometry">
            <mxPoint x="530" y="520" as="sourcePoint" />
            <mxPoint x="580" y="470" as="targetPoint" />
            <Array as="points">
              <mxPoint x="510" y="510" />
              <mxPoint x="510" y="560" />
            </Array>
          </mxGeometry>
        </mxCell>
        <mxCell id="i-tnlhz29vro71CStZkx-86" value="Details of report in input form" style="text;html=1;strokeColor=none;fillColor=none;align=center;verticalAlign=middle;whiteSpace=wrap;rounded=0;fontSize=9;labelBackgroundColor=none;fontColor=#143642;" parent="1" vertex="1">
          <mxGeometry x="469.5" y="557" width="160" height="30" as="geometry" />
        </mxCell>
        <mxCell id="i-tnlhz29vro71CStZkx-87" value="Report sumbission message" style="text;html=1;strokeColor=none;fillColor=none;align=center;verticalAlign=middle;whiteSpace=wrap;rounded=0;fontSize=9;labelBackgroundColor=none;fontColor=#143642;" parent="1" vertex="1">
          <mxGeometry x="470" y="577.5" width="160" height="30" as="geometry" />
        </mxCell>
        <mxCell id="i-tnlhz29vro71CStZkx-88" value="" style="endArrow=classic;html=1;rounded=0;exitX=0.465;exitY=1.038;exitDx=0;exitDy=0;exitPerimeter=0;entryX=0;entryY=0.5;entryDx=0;entryDy=0;labelBackgroundColor=none;strokeColor=#A8201A;fontColor=default;" parent="1" source="i-tnlhz29vro71CStZkx-23" target="i-tnlhz29vro71CStZkx-7" edge="1">
          <mxGeometry width="50" height="50" relative="1" as="geometry">
            <mxPoint x="700" y="350" as="sourcePoint" />
            <mxPoint x="900" y="620" as="targetPoint" />
            <Array as="points">
              <mxPoint x="760" y="620" />
              <mxPoint x="760" y="699" />
            </Array>
          </mxGeometry>
        </mxCell>
        <mxCell id="i-tnlhz29vro71CStZkx-89" value="&lt;span style=&quot;color: rgb(0, 0, 0); font-family: Helvetica; font-size: 12px; font-style: normal; font-variant-ligatures: normal; font-variant-caps: normal; font-weight: 400; letter-spacing: normal; orphans: 2; text-align: left; text-indent: 0px; text-transform: none; widows: 2; word-spacing: 0px; -webkit-text-stroke-width: 0px; background-color: rgb(251, 251, 251); text-decoration-thickness: initial; text-decoration-style: initial; text-decoration-color: initial; float: none; display: inline !important;&quot;&gt;Access Record:&lt;/span&gt;&lt;br style=&quot;border-color: var(--border-color); color: rgb(0, 0, 0); font-family: Helvetica; font-size: 12px; font-style: normal; font-variant-ligatures: normal; font-variant-caps: normal; font-weight: 400; letter-spacing: normal; orphans: 2; text-align: left; text-indent: 0px; text-transform: none; widows: 2; word-spacing: 0px; -webkit-text-stroke-width: 0px; background-color: rgb(251, 251, 251); text-decoration-thickness: initial; text-decoration-style: initial; text-decoration-color: initial;&quot;&gt;&lt;span style=&quot;color: rgb(0, 0, 0); font-family: Helvetica; font-size: 12px; font-style: normal; font-variant-ligatures: normal; font-variant-caps: normal; font-weight: 400; letter-spacing: normal; orphans: 2; text-align: left; text-indent: 0px; text-transform: none; widows: 2; word-spacing: 0px; -webkit-text-stroke-width: 0px; background-color: rgb(251, 251, 251); text-decoration-thickness: initial; text-decoration-style: initial; text-decoration-color: initial; float: none; display: inline !important;&quot;&gt;List of flagged accounts&lt;/span&gt;" style="endArrow=classic;html=1;rounded=0;entryX=0.5;entryY=1;entryDx=0;entryDy=0;exitX=0.5;exitY=0;exitDx=0;exitDy=0;labelBackgroundColor=none;strokeColor=#A8201A;fontColor=default;" parent="1" source="i-tnlhz29vro71CStZkx-7" target="i-tnlhz29vro71CStZkx-6" edge="1">
          <mxGeometry width="50" height="50" relative="1" as="geometry">
            <mxPoint x="800" y="460" as="sourcePoint" />
            <mxPoint x="850" y="410" as="targetPoint" />
          </mxGeometry>
        </mxCell>
        <mxCell id="i-tnlhz29vro71CStZkx-90" value="" style="endArrow=classic;html=1;rounded=0;exitX=0.5;exitY=0;exitDx=0;exitDy=0;entryX=0.471;entryY=-0.005;entryDx=0;entryDy=0;entryPerimeter=0;labelBackgroundColor=none;strokeColor=#A8201A;fontColor=default;" parent="1" source="i-tnlhz29vro71CStZkx-6" target="i-tnlhz29vro71CStZkx-22" edge="1">
          <mxGeometry width="50" height="50" relative="1" as="geometry">
            <mxPoint x="720" y="460" as="sourcePoint" />
            <mxPoint x="760" y="478" as="targetPoint" />
            <Array as="points">
              <mxPoint x="990" y="510" />
              <mxPoint x="870" y="510" />
              <mxPoint x="761" y="510" />
            </Array>
          </mxGeometry>
        </mxCell>
        <mxCell id="i-tnlhz29vro71CStZkx-92" value="Outcome of report" style="text;whiteSpace=wrap;html=1;labelBackgroundColor=none;fontColor=#143642;" parent="1" vertex="1">
          <mxGeometry x="820" y="484" width="130" height="40" as="geometry" />
        </mxCell>
        <mxCell id="i-tnlhz29vro71CStZkx-94" value="MySQL Record:&lt;br&gt;List of flagged accounts" style="text;whiteSpace=wrap;html=1;horizontal=1;align=center;labelBackgroundColor=none;fontColor=#143642;" parent="1" vertex="1">
          <mxGeometry x="760" y="695.25" width="130" height="20" as="geometry" />
        </mxCell>
        <mxCell id="i-tnlhz29vro71CStZkx-97" value="" style="endArrow=classic;html=1;rounded=0;entryX=0.013;entryY=0.88;entryDx=0;entryDy=0;entryPerimeter=0;exitX=0.5;exitY=0;exitDx=0;exitDy=0;labelBackgroundColor=none;strokeColor=#A8201A;fontColor=default;" parent="1" source="i-tnlhz29vro71CStZkx-4" target="i-tnlhz29vro71CStZkx-16" edge="1">
          <mxGeometry width="50" height="50" relative="1" as="geometry">
            <mxPoint x="580" y="480" as="sourcePoint" />
            <mxPoint x="630" y="430" as="targetPoint" />
            <Array as="points">
              <mxPoint x="480" y="400" />
              <mxPoint x="480" y="330" />
              <mxPoint x="610" y="330" />
              <mxPoint x="692" y="330" />
            </Array>
          </mxGeometry>
        </mxCell>
        <mxCell id="i-tnlhz29vro71CStZkx-98" value="Location access confirmation message" style="text;html=1;strokeColor=none;fillColor=none;align=center;verticalAlign=middle;whiteSpace=wrap;rounded=0;fontSize=9;labelBackgroundColor=none;fontColor=#143642;" parent="1" vertex="1">
          <mxGeometry x="471" y="308" width="200" height="30" as="geometry" />
        </mxCell>
        <mxCell id="i-tnlhz29vro71CStZkx-99" value="" style="endArrow=classic;html=1;rounded=0;entryX=0.593;entryY=0.006;entryDx=0;entryDy=0;entryPerimeter=0;labelBackgroundColor=none;strokeColor=#A8201A;fontColor=default;" parent="1" target="i-tnlhz29vro71CStZkx-4" edge="1">
          <mxGeometry width="50" height="50" relative="1" as="geometry">
            <mxPoint x="710" y="320" as="sourcePoint" />
            <mxPoint x="510" y="290" as="targetPoint" />
            <Array as="points">
              <mxPoint x="710" y="350" />
              <mxPoint x="640" y="350" />
              <mxPoint x="570" y="350" />
              <mxPoint x="490" y="350" />
              <mxPoint x="490" y="400" />
            </Array>
          </mxGeometry>
        </mxCell>
        <mxCell id="i-tnlhz29vro71CStZkx-100" value="Location information of driver&amp;nbsp;" style="text;html=1;strokeColor=none;fillColor=none;align=center;verticalAlign=middle;whiteSpace=wrap;rounded=0;fontSize=9;labelBackgroundColor=none;fontColor=#143642;" parent="1" vertex="1">
          <mxGeometry x="482" y="327" width="200" height="30" as="geometry" />
        </mxCell>
        <mxCell id="i-tnlhz29vro71CStZkx-101" value="" style="endArrow=classic;html=1;rounded=0;exitX=0.688;exitY=-0.031;exitDx=0;exitDy=0;exitPerimeter=0;entryX=0.208;entryY=1.035;entryDx=0;entryDy=0;entryPerimeter=0;labelBackgroundColor=none;strokeColor=#A8201A;fontColor=default;" parent="1" source="i-tnlhz29vro71CStZkx-4" target="i-tnlhz29vro71CStZkx-16" edge="1">
          <mxGeometry width="50" height="50" relative="1" as="geometry">
            <mxPoint x="470" y="350" as="sourcePoint" />
            <mxPoint x="670" y="410" as="targetPoint" />
            <Array as="points">
              <mxPoint x="500" y="370" />
              <mxPoint x="600" y="370" />
              <mxPoint x="721" y="370" />
            </Array>
          </mxGeometry>
        </mxCell>
        <mxCell id="i-tnlhz29vro71CStZkx-102" value="Ride search request" style="text;html=1;align=center;verticalAlign=middle;resizable=0;points=[];autosize=1;strokeColor=none;fillColor=none;rotation=0;fontSize=9;labelBackgroundColor=none;fontColor=#143642;" parent="1" vertex="1">
          <mxGeometry x="551" y="353" width="100" height="20" as="geometry" />
        </mxCell>
        <mxCell id="i-tnlhz29vro71CStZkx-103" value="" style="endArrow=classic;html=1;rounded=0;entryX=0.794;entryY=-0.028;entryDx=0;entryDy=0;exitX=0.275;exitY=1.025;exitDx=0;exitDy=0;exitPerimeter=0;entryPerimeter=0;labelBackgroundColor=none;strokeColor=#A8201A;fontColor=default;" parent="1" source="i-tnlhz29vro71CStZkx-16" target="i-tnlhz29vro71CStZkx-4" edge="1">
          <mxGeometry width="50" height="50" relative="1" as="geometry">
            <mxPoint x="740" y="320" as="sourcePoint" />
            <mxPoint x="610" y="300" as="targetPoint" />
            <Array as="points">
              <mxPoint x="731" y="390" />
              <mxPoint x="510" y="390" />
            </Array>
          </mxGeometry>
        </mxCell>
        <mxCell id="i-tnlhz29vro71CStZkx-104" value="Availability of drivers in specail interface" style="text;html=1;align=center;verticalAlign=middle;resizable=0;points=[];autosize=1;strokeColor=none;fillColor=none;rotation=0;fontSize=9;labelBackgroundColor=none;fontColor=#143642;" parent="1" vertex="1">
          <mxGeometry x="521" y="372" width="180" height="20" as="geometry" />
        </mxCell>
        <mxCell id="i-tnlhz29vro71CStZkx-105" value="" style="endArrow=classic;html=1;rounded=0;exitX=0.905;exitY=0.01;exitDx=0;exitDy=0;exitPerimeter=0;labelBackgroundColor=none;strokeColor=#A8201A;fontColor=default;" parent="1" source="i-tnlhz29vro71CStZkx-4" edge="1">
          <mxGeometry width="50" height="50" relative="1" as="geometry">
            <mxPoint x="590" y="350" as="sourcePoint" />
            <mxPoint x="740" y="320" as="targetPoint" />
            <Array as="points">
              <mxPoint x="521" y="410" />
              <mxPoint x="620" y="410" />
              <mxPoint x="740" y="410" />
            </Array>
          </mxGeometry>
        </mxCell>
        <mxCell id="i-tnlhz29vro71CStZkx-106" value="Ride request&amp;nbsp;" style="text;html=1;align=center;verticalAlign=middle;resizable=0;points=[];autosize=1;strokeColor=none;fillColor=none;rotation=0;fontSize=9;labelBackgroundColor=none;fontColor=#143642;" parent="1" vertex="1">
          <mxGeometry x="568" y="392" width="80" height="20" as="geometry" />
        </mxCell>
        <mxCell id="i-tnlhz29vro71CStZkx-107" value="" style="endArrow=classic;html=1;rounded=0;entryX=1;entryY=0;entryDx=0;entryDy=0;exitX=0.397;exitY=1.029;exitDx=0;exitDy=0;exitPerimeter=0;labelBackgroundColor=none;strokeColor=#A8201A;fontColor=default;" parent="1" source="i-tnlhz29vro71CStZkx-16" target="i-tnlhz29vro71CStZkx-4" edge="1">
          <mxGeometry width="50" height="50" relative="1" as="geometry">
            <mxPoint x="590" y="350" as="sourcePoint" />
            <mxPoint x="640" y="300" as="targetPoint" />
            <Array as="points">
              <mxPoint x="750" y="430" />
              <mxPoint x="650" y="430" />
              <mxPoint x="530" y="430" />
            </Array>
          </mxGeometry>
        </mxCell>
        <mxCell id="i-tnlhz29vro71CStZkx-108" value="Ride confirmation message" style="text;html=1;align=center;verticalAlign=middle;resizable=0;points=[];autosize=1;strokeColor=none;fillColor=none;rotation=0;fontSize=9;labelBackgroundColor=none;fontColor=#143642;" parent="1" vertex="1">
          <mxGeometry x="546" y="409" width="130" height="20" as="geometry" />
        </mxCell>
        <mxCell id="i-tnlhz29vro71CStZkx-109" value="" style="endArrow=classic;html=1;rounded=0;entryX=1;entryY=0;entryDx=0;entryDy=0;labelBackgroundColor=none;strokeColor=#A8201A;fontColor=default;" parent="1" target="i-tnlhz29vro71CStZkx-4" edge="1">
          <mxGeometry width="50" height="50" relative="1" as="geometry">
            <mxPoint x="760" y="320" as="sourcePoint" />
            <mxPoint x="640" y="300" as="targetPoint" />
            <Array as="points">
              <mxPoint x="760" y="450" />
              <mxPoint x="680" y="450" />
              <mxPoint x="600" y="450" />
              <mxPoint x="540" y="450" />
            </Array>
          </mxGeometry>
        </mxCell>
        <mxCell id="i-tnlhz29vro71CStZkx-110" value="Ride status visually" style="text;html=1;align=center;verticalAlign=middle;resizable=0;points=[];autosize=1;strokeColor=none;fillColor=none;rotation=0;fontSize=9;labelBackgroundColor=none;fontColor=#143642;" parent="1" vertex="1">
          <mxGeometry x="564" y="429" width="100" height="20" as="geometry" />
        </mxCell>
        <mxCell id="i-tnlhz29vro71CStZkx-111" value="" style="endArrow=classic;html=1;rounded=0;labelBackgroundColor=none;strokeColor=#A8201A;fontColor=default;" parent="1" edge="1">
          <mxGeometry width="50" height="50" relative="1" as="geometry">
            <mxPoint x="530" y="470" as="sourcePoint" />
            <mxPoint x="770" y="320" as="targetPoint" />
            <Array as="points">
              <mxPoint x="670" y="470" />
              <mxPoint x="770" y="470" />
            </Array>
          </mxGeometry>
        </mxCell>
        <mxCell id="i-tnlhz29vro71CStZkx-112" value="Ride cancellation request&amp;nbsp;" style="text;html=1;align=center;verticalAlign=middle;resizable=0;points=[];autosize=1;strokeColor=none;fillColor=none;rotation=0;fontSize=9;labelBackgroundColor=none;fontColor=#143642;" parent="1" vertex="1">
          <mxGeometry x="568" y="449.5" width="130" height="20" as="geometry" />
        </mxCell>
        <mxCell id="i-tnlhz29vro71CStZkx-113" value="" style="endArrow=classic;html=1;rounded=0;entryX=1;entryY=0.5;entryDx=0;entryDy=0;labelBackgroundColor=none;strokeColor=#A8201A;fontColor=default;" parent="1" target="i-tnlhz29vro71CStZkx-4" edge="1">
          <mxGeometry width="50" height="50" relative="1" as="geometry">
            <mxPoint x="790" y="320" as="sourcePoint" />
            <mxPoint x="710" y="330" as="targetPoint" />
            <Array as="points">
              <mxPoint x="790" y="490" />
            </Array>
          </mxGeometry>
        </mxCell>
        <mxCell id="i-tnlhz29vro71CStZkx-114" value="Ride cancellation confirmation message" style="text;html=1;align=center;verticalAlign=middle;resizable=0;points=[];autosize=1;strokeColor=none;fillColor=none;rotation=0;fontSize=9;labelBackgroundColor=none;fontColor=#143642;" parent="1" vertex="1">
          <mxGeometry x="570" y="471" width="180" height="20" as="geometry" />
        </mxCell>
        <mxCell id="i-tnlhz29vro71CStZkx-116" value="" style="endArrow=classic;html=1;rounded=0;entryX=0.862;entryY=-0.024;entryDx=0;entryDy=0;entryPerimeter=0;exitX=0.167;exitY=0.667;exitDx=0;exitDy=0;exitPerimeter=0;labelBackgroundColor=none;strokeColor=#A8201A;fontColor=default;" parent="1" source="i-tnlhz29vro71CStZkx-14" target="i-tnlhz29vro71CStZkx-15" edge="1">
          <mxGeometry width="50" height="50" relative="1" as="geometry">
            <mxPoint x="690" y="310" as="sourcePoint" />
            <mxPoint x="740" y="260" as="targetPoint" />
            <Array as="points">
              <mxPoint x="819" y="120" />
            </Array>
          </mxGeometry>
        </mxCell>
        <mxCell id="KOLVTev2kFEoOMY6-Nuw-14" value="Access Record:&lt;br&gt;&amp;nbsp;Location information" style="edgeLabel;html=1;align=center;verticalAlign=middle;resizable=0;points=[];labelBackgroundColor=none;fontColor=#143642;" vertex="1" connectable="0" parent="i-tnlhz29vro71CStZkx-116">
          <mxGeometry x="0.2503" y="4" relative="1" as="geometry">
            <mxPoint x="37" y="5" as="offset" />
          </mxGeometry>
        </mxCell>
        <mxCell id="i-tnlhz29vro71CStZkx-118" value="Driver" style="html=1;dashed=0;whiteSpace=wrap;labelBackgroundColor=none;fillColor=#FAE5C7;strokeColor=#0F8B8D;fontColor=#143642;" parent="1" vertex="1">
          <mxGeometry x="439.5" y="690" width="100" height="50" as="geometry" />
        </mxCell>
        <mxCell id="i-tnlhz29vro71CStZkx-119" value="" style="endArrow=classic;html=1;rounded=0;entryX=0.059;entryY=1.032;entryDx=0;entryDy=0;entryPerimeter=0;exitX=0.5;exitY=0;exitDx=0;exitDy=0;labelBackgroundColor=none;strokeColor=#A8201A;fontColor=default;" parent="1" source="i-tnlhz29vro71CStZkx-118" target="i-tnlhz29vro71CStZkx-23" edge="1">
          <mxGeometry width="50" height="50" relative="1" as="geometry">
            <mxPoint x="570" y="580" as="sourcePoint" />
            <mxPoint x="620" y="530" as="targetPoint" />
            <Array as="points">
              <mxPoint x="490" y="630" />
              <mxPoint x="700" y="630" />
            </Array>
          </mxGeometry>
        </mxCell>
        <mxCell id="i-tnlhz29vro71CStZkx-120" value="Feedback for passenger in input form" style="text;whiteSpace=wrap;html=1;fontSize=10;labelBackgroundColor=none;fontColor=#143642;" parent="1" vertex="1">
          <mxGeometry x="499.5" y="600" width="140" height="40" as="geometry" />
        </mxCell>
        <mxCell id="i-tnlhz29vro71CStZkx-121" value="" style="endArrow=classic;html=1;rounded=0;entryX=0.197;entryY=1.032;entryDx=0;entryDy=0;entryPerimeter=0;exitX=0.681;exitY=-0.032;exitDx=0;exitDy=0;exitPerimeter=0;labelBackgroundColor=none;strokeColor=#A8201A;fontColor=default;" parent="1" source="i-tnlhz29vro71CStZkx-118" target="i-tnlhz29vro71CStZkx-23" edge="1">
          <mxGeometry width="50" height="50" relative="1" as="geometry">
            <mxPoint x="570" y="580" as="sourcePoint" />
            <mxPoint x="620" y="530" as="targetPoint" />
            <Array as="points">
              <mxPoint x="508" y="650" />
              <mxPoint x="720" y="650" />
            </Array>
          </mxGeometry>
        </mxCell>
        <mxCell id="i-tnlhz29vro71CStZkx-122" value="Details of report in input form" style="text;html=1;strokeColor=none;fillColor=none;align=center;verticalAlign=middle;whiteSpace=wrap;rounded=0;fontSize=9;labelBackgroundColor=none;fontColor=#143642;" parent="1" vertex="1">
          <mxGeometry x="509.5" y="625.5" width="160" height="30" as="geometry" />
        </mxCell>
        <mxCell id="i-tnlhz29vro71CStZkx-123" value="" style="endArrow=classic;html=1;rounded=0;entryX=0.921;entryY=-0.016;entryDx=0;entryDy=0;entryPerimeter=0;exitX=0.331;exitY=1.048;exitDx=0;exitDy=0;exitPerimeter=0;labelBackgroundColor=none;strokeColor=#A8201A;fontColor=default;" parent="1" source="i-tnlhz29vro71CStZkx-23" target="i-tnlhz29vro71CStZkx-118" edge="1">
          <mxGeometry width="50" height="50" relative="1" as="geometry">
            <mxPoint x="570" y="580" as="sourcePoint" />
            <mxPoint x="620" y="530" as="targetPoint" />
            <Array as="points">
              <mxPoint x="740" y="670" />
              <mxPoint x="530" y="670" />
            </Array>
          </mxGeometry>
        </mxCell>
        <mxCell id="i-tnlhz29vro71CStZkx-124" value="Report sumbission message" style="text;html=1;strokeColor=none;fillColor=none;align=center;verticalAlign=middle;whiteSpace=wrap;rounded=0;fontSize=9;labelBackgroundColor=none;fontColor=#143642;" parent="1" vertex="1">
          <mxGeometry x="533" y="645" width="160" height="30" as="geometry" />
        </mxCell>
        <mxCell id="3s9C69leFul3qWCw0u49-2" value="" style="rounded=0;whiteSpace=wrap;html=1;align=right;labelBackgroundColor=none;fillColor=#FAE5C7;strokeColor=#0F8B8D;fontColor=#143642;" parent="1" vertex="1">
          <mxGeometry x="20" y="95" width="170" height="40" as="geometry" />
        </mxCell>
        <mxCell id="3s9C69leFul3qWCw0u49-3" value="" style="endArrow=none;html=1;rounded=0;entryX=0.25;entryY=0;entryDx=0;entryDy=0;exitX=0.25;exitY=1;exitDx=0;exitDy=0;labelBackgroundColor=none;strokeColor=#A8201A;fontColor=default;" parent="1" source="3s9C69leFul3qWCw0u49-2" target="3s9C69leFul3qWCw0u49-2" edge="1">
          <mxGeometry width="50" height="50" relative="1" as="geometry">
            <mxPoint x="-180" y="405" as="sourcePoint" />
            <mxPoint x="-130" y="355" as="targetPoint" />
            <Array as="points" />
          </mxGeometry>
        </mxCell>
        <mxCell id="3s9C69leFul3qWCw0u49-4" value="D1" style="text;html=1;strokeColor=none;fillColor=none;align=center;verticalAlign=middle;whiteSpace=wrap;rounded=0;labelBackgroundColor=none;fontColor=#143642;" parent="1" vertex="1">
          <mxGeometry x="10" y="100" width="60" height="30" as="geometry" />
        </mxCell>
        <mxCell id="3s9C69leFul3qWCw0u49-5" value="MySQL record: Account information" style="endArrow=classic;html=1;rounded=0;exitX=-0.013;exitY=0.32;exitDx=0;exitDy=0;exitPerimeter=0;labelBackgroundColor=none;strokeColor=#A8201A;fontColor=default;" parent="1" source="i-tnlhz29vro71CStZkx-2" edge="1">
          <mxGeometry x="0.5414" width="50" height="50" relative="1" as="geometry">
            <mxPoint x="440" y="360" as="sourcePoint" />
            <mxPoint x="50" y="140" as="targetPoint" />
            <Array as="points">
              <mxPoint x="50" y="280" />
            </Array>
            <mxPoint as="offset" />
          </mxGeometry>
        </mxCell>
        <mxCell id="3s9C69leFul3qWCw0u49-8" value="" style="endArrow=classic;html=1;rounded=0;exitX=0.725;exitY=1.064;exitDx=0;exitDy=0;exitPerimeter=0;labelBackgroundColor=none;strokeColor=#A8201A;fontColor=default;" parent="1" source="i-tnlhz29vro71CStZkx-23" edge="1">
          <mxGeometry width="50" height="50" relative="1" as="geometry">
            <mxPoint x="830" y="560" as="sourcePoint" />
            <mxPoint x="910" y="680" as="targetPoint" />
            <Array as="points">
              <mxPoint x="800" y="670" />
            </Array>
          </mxGeometry>
        </mxCell>
        <mxCell id="3s9C69leFul3qWCw0u49-9" value="MySQL Record:&lt;br&gt;Feedback for users" style="text;html=1;strokeColor=none;fillColor=none;align=center;verticalAlign=middle;whiteSpace=wrap;rounded=0;fontSize=11;labelBackgroundColor=none;fontColor=#143642;" parent="1" vertex="1">
          <mxGeometry x="780" y="645" width="160" height="30" as="geometry" />
        </mxCell>
        <mxCell id="qPA8sIYIRieho6AAy9j8-1" value="" style="rounded=0;whiteSpace=wrap;html=1;align=right;labelBackgroundColor=none;fillColor=#FAE5C7;strokeColor=#0F8B8D;fontColor=#143642;" parent="1" vertex="1">
          <mxGeometry x="120" y="770" width="180" height="40" as="geometry" />
        </mxCell>
        <mxCell id="qPA8sIYIRieho6AAy9j8-2" value="" style="endArrow=none;html=1;rounded=0;entryX=0.25;entryY=0;entryDx=0;entryDy=0;exitX=0.25;exitY=1;exitDx=0;exitDy=0;labelBackgroundColor=none;strokeColor=#A8201A;fontColor=default;" parent="1" source="qPA8sIYIRieho6AAy9j8-1" target="qPA8sIYIRieho6AAy9j8-1" edge="1">
          <mxGeometry width="50" height="50" relative="1" as="geometry">
            <mxPoint x="-520" y="421.5" as="sourcePoint" />
            <mxPoint x="-470" y="371.5" as="targetPoint" />
            <Array as="points" />
          </mxGeometry>
        </mxCell>
        <mxCell id="qPA8sIYIRieho6AAy9j8-3" value="D3" style="text;html=1;strokeColor=none;fillColor=none;align=center;verticalAlign=middle;whiteSpace=wrap;rounded=0;labelBackgroundColor=none;fontColor=#143642;" parent="1" vertex="1">
          <mxGeometry x="119" y="772" width="50" height="35" as="geometry" />
        </mxCell>
        <mxCell id="qPA8sIYIRieho6AAy9j8-4" value="" style="endArrow=classic;html=1;rounded=0;entryX=0.25;entryY=0;entryDx=0;entryDy=0;exitX=0.507;exitY=1.01;exitDx=0;exitDy=0;exitPerimeter=0;labelBackgroundColor=none;strokeColor=#A8201A;fontColor=default;" parent="1" source="i-tnlhz29vro71CStZkx-21" target="qPA8sIYIRieho6AAy9j8-1" edge="1">
          <mxGeometry width="50" height="50" relative="1" as="geometry">
            <mxPoint x="310" y="590" as="sourcePoint" />
            <mxPoint x="360" y="540" as="targetPoint" />
          </mxGeometry>
        </mxCell>
        <mxCell id="KOLVTev2kFEoOMY6-Nuw-8" value="MySQL Record:&lt;br style=&quot;border-color: var(--border-color); font-size: 9px; background-color: rgb(251, 251, 251);&quot;&gt;&lt;span style=&quot;font-size: 9px; background-color: rgb(251, 251, 251);&quot;&gt;Payment details&lt;/span&gt;" style="edgeLabel;html=1;align=center;verticalAlign=middle;resizable=0;points=[];labelBackgroundColor=none;fontColor=#143642;" vertex="1" connectable="0" parent="qPA8sIYIRieho6AAy9j8-4">
          <mxGeometry x="-0.5714" y="-1" relative="1" as="geometry">
            <mxPoint x="-27" y="32" as="offset" />
          </mxGeometry>
        </mxCell>
        <mxCell id="qPA8sIYIRieho6AAy9j8-7" value="Access Record:&lt;br style=&quot;border-color: var(--border-color); font-size: 9px; background-color: rgb(251, 251, 251);&quot;&gt;&lt;span style=&quot;font-size: 9px; background-color: rgb(251, 251, 251);&quot;&gt;Payment information&lt;/span&gt;" style="endArrow=classic;html=1;rounded=0;entryX=0.667;entryY=1.01;entryDx=0;entryDy=0;entryPerimeter=0;labelBackgroundColor=none;strokeColor=#A8201A;fontColor=default;" parent="1" target="i-tnlhz29vro71CStZkx-21" edge="1">
          <mxGeometry x="0.0769" y="-30" width="50" height="50" relative="1" as="geometry">
            <mxPoint x="230" y="770" as="sourcePoint" />
            <mxPoint x="460" y="570" as="targetPoint" />
            <mxPoint as="offset" />
          </mxGeometry>
        </mxCell>
        <mxCell id="KOLVTev2kFEoOMY6-Nuw-2" value="MySQL: User&#39;s data &lt;br&gt;table&amp;nbsp; &amp;nbsp; &amp;nbsp; &amp;nbsp;" style="text;html=1;strokeColor=none;fillColor=none;align=left;verticalAlign=middle;whiteSpace=wrap;rounded=0;labelBackgroundColor=none;fontColor=#143642;" vertex="1" parent="1">
          <mxGeometry x="70" y="100" width="150" height="30" as="geometry" />
        </mxCell>
        <mxCell id="KOLVTev2kFEoOMY6-Nuw-4" value="MySQL: Location Data&lt;br&gt;Table" style="text;html=1;strokeColor=none;fillColor=none;align=left;verticalAlign=middle;whiteSpace=wrap;rounded=0;labelBackgroundColor=none;fontColor=#143642;" vertex="1" parent="1">
          <mxGeometry x="950" y="100" width="150" height="30" as="geometry" />
        </mxCell>
        <mxCell id="KOLVTev2kFEoOMY6-Nuw-6" value="MySQL: Payment data &lt;br&gt;table&amp;nbsp; &amp;nbsp; &amp;nbsp; &amp;nbsp;" style="text;html=1;strokeColor=none;fillColor=none;align=left;verticalAlign=middle;whiteSpace=wrap;rounded=0;labelBackgroundColor=none;fontColor=#143642;" vertex="1" parent="1">
          <mxGeometry x="169" y="775" width="150" height="30" as="geometry" />
        </mxCell>
        <mxCell id="KOLVTev2kFEoOMY6-Nuw-10" value="MySQL: Feedback data&lt;br&gt;table&amp;nbsp; &amp;nbsp; &amp;nbsp; &amp;nbsp;" style="text;html=1;strokeColor=none;fillColor=none;align=left;verticalAlign=middle;whiteSpace=wrap;rounded=0;labelBackgroundColor=none;fontColor=#143642;" vertex="1" parent="1">
          <mxGeometry x="960" y="681.75" width="140" height="33.5" as="geometry" />
        </mxCell>
      </root>
    </mxGraphModel>
  </diagram>
</mxfile>
